<?xml version="1.0" standalone="no"?><!DOCTYPE svg PUBLIC "-//W3C//DTD SVG 1.1//EN" "http://www.w3.org/Graphics/SVG/1.1/DTD/svg11.dtd"><svg t="1609070880963" class="icon" viewBox="0 0 1024 1024" version="1.1" xmlns="http://www.w3.org/2000/svg" p-id="2919" xmlns:xlink="http://www.w3.org/1999/xlink" width="100" height="100"><defs><style type="text/css"></style></defs><path d="M780 267H545v-45c0-19.9-16.1-36-36-36s-36 16.1-36 36v45H238c-19.9 0-36 16.1-36 36s16.1 36 36 36h18.5c-0.4 2.1-0.5 4.3-0.5 6.6v401c0 39.1 31.8 71.4 70.9 71.4h365c39.1 0 71.1-32.3 71.1-71.4v-337c0-19.9-16.1-36-36-36s-36 16.1-36 36V746H328V345.6c0-2.3-0.3-4.5-0.7-6.6H780c19.9 0 36-16.1 36-36s-16.1-36-36-36z" p-id="2920"></path><path d="M403 413v258c0 19.9 16.1 36 36 36s36-16.1 36-36V413c0-19.9-16.1-36-36-36s-36 16.1-36 36zM543 413v258c0 19.9 16.1 36 36 36s36-16.1 36-36V413c0-19.9-16.1-36-36-36s-36 16.1-36 36z" p-id="2921"></path></svg>